<?xml version="1.0" encoding="UTF-8"?>
<!DOCTYPE svg PUBLIC "-//W3C//DTD SVG 1.1//EN" "http://www.w3.org/Graphics/SVG/1.1/DTD/svg11.dtd">
<svg xmlns="http://www.w3.org/2000/svg" version="1.1" width="96px" height="96px" style="shape-rendering:geometricPrecision; text-rendering:geometricPrecision; image-rendering:optimizeQuality; fill-rule:evenodd; clip-rule:evenodd" xmlns:xlink="http://www.w3.org/1999/xlink">
<g><path style="opacity:0.008" fill="#d8d8d8" d="M 30.5,0.5 C 30.5,0.166667 30.5,-0.166667 30.5,-0.5C 31.1667,-0.5 31.8333,-0.5 32.5,-0.5C 32.1583,0.338246 31.4916,0.67158 30.5,0.5 Z"/></g>
<g><path style="opacity:0.968" fill="#d8d8d8" d="M 36.5,-0.5 C 43.8333,-0.5 51.1667,-0.5 58.5,-0.5C 60.2143,0.738379 62.2143,1.40505 64.5,1.5C 65.209,2.40397 66.209,2.73731 67.5,2.5C 67.8417,3.33825 68.5084,3.67158 69.5,3.5C 71.1184,5.31597 73.1184,6.6493 75.5,7.5C 80.8725,11.8714 85.5392,16.8714 89.5,22.5C 89.427,24.0269 90.0937,25.0269 91.5,25.5C 91.9802,28.4432 92.9802,31.1098 94.5,33.5C 94.2322,35.099 94.5655,36.4324 95.5,37.5C 95.5,44.1667 95.5,50.8333 95.5,57.5C 94.3882,59.5994 93.7215,61.9327 93.5,64.5C 92.0687,65.7804 91.4021,67.4471 91.5,69.5C 90.0937,69.9731 89.427,70.9731 89.5,72.5C 88.6618,72.8417 88.3284,73.5084 88.5,74.5C 87.8333,74.5 87.5,74.8333 87.5,75.5C 86.0937,75.9731 85.427,76.9731 85.5,78.5C 84.8333,78.5 84.5,78.8333 84.5,79.5C 83.8333,79.5 83.5,79.8333 83.5,80.5C 82.8333,80.5 82.5,80.8333 82.5,81.5C 81.8333,81.5 81.5,81.8333 81.5,82.5C 80.8333,82.5 80.5,82.8333 80.5,83.5C 79.8333,83.5 79.5,83.8333 79.5,84.5C 77.246,85.1237 75.5794,86.457 74.5,88.5C 73.5084,88.3284 72.8417,88.6618 72.5,89.5C 70.9731,89.427 69.9731,90.0937 69.5,91.5C 67.4471,91.4021 65.7804,92.0687 64.5,93.5C 62.2143,93.595 60.2143,94.2616 58.5,95.5C 51.1667,95.5 43.8333,95.5 36.5,95.5C 34.7857,94.2616 32.7857,93.595 30.5,93.5C 29.2196,92.0687 27.5529,91.4021 25.5,91.5C 25.0269,90.0937 24.0269,89.427 22.5,89.5C 16.8714,85.5392 11.8714,80.8725 7.5,75.5C 6.6493,73.1184 5.31597,71.1184 3.5,69.5C 3.59794,67.4471 2.93127,65.7804 1.5,64.5C 1.27852,61.9327 0.611848,59.5994 -0.5,57.5C -0.5,50.8333 -0.5,44.1667 -0.5,37.5C 0.611848,35.4006 1.27852,33.0673 1.5,30.5C 2.93127,29.2196 3.59794,27.5529 3.5,25.5C 9.16667,16.5 16.5,9.16667 25.5,3.5C 26.4916,3.67158 27.1583,3.33825 27.5,2.5C 28.791,2.73731 29.791,2.40397 30.5,1.5C 32.7857,1.40505 34.7857,0.738379 36.5,-0.5 Z"/></g>
<g><path style="opacity:0.008" fill="#d8d8d8" d="M 62.5,-0.5 C 63.1667,-0.5 63.8333,-0.5 64.5,-0.5C 64.5,-0.166667 64.5,0.166667 64.5,0.5C 63.5084,0.67158 62.8417,0.338246 62.5,-0.5 Z"/></g>
<g><path style="opacity:0.01" fill="#d8d9d8" d="M 30.5,0.5 C 30.5,0.833333 30.5,1.16667 30.5,1.5C 27.8333,1.16667 27.8333,0.833333 30.5,0.5 Z"/></g>
<g><path style="opacity:0.01" fill="#d8d8d8" d="M 64.5,1.5 C 64.5,1.16667 64.5,0.833333 64.5,0.5C 67.1667,0.833333 67.1667,1.16667 64.5,1.5 Z"/></g>
<g><path style="opacity:0.012" fill="#d7d8d7" d="M 27.5,2.5 C 26.8333,1.16667 26.8333,1.16667 27.5,2.5 Z"/></g>
<g><path style="opacity:0.012" fill="#d7d8d7" d="M 67.5,1.5 C 68.8333,2.16667 68.8333,2.16667 67.5,1.5 Z"/></g>
<g><path style="opacity:0.012" fill="#d8d9d8" d="M 25.5,3.5 C 24.8333,2.16667 24.8333,2.16667 25.5,3.5 Z"/></g>
<g><path style="opacity:0.012" fill="#d7d8d7" d="M 69.5,2.5 C 70.8333,3.16667 70.8333,3.16667 69.5,2.5 Z"/></g>
<g><path style="opacity:0.008" fill="#d8d9d8" d="M 22.5,3.5 C 23.8333,4.16667 23.8333,4.16667 22.5,3.5 Z"/></g>
<g><path style="opacity:0.008" fill="#d8d9d8" d="M 71.5,3.5 C 72.8333,4.16667 72.8333,4.16667 71.5,3.5 Z"/></g>
<g><path style="opacity:0.012" fill="#d7d8d7" d="M 75.5,6.5 C 76.8333,7.16667 76.8333,7.16667 75.5,6.5 Z"/></g>
<g><path style="opacity:0.008" fill="#d7d8d7" d="M 16.5,7.5 C 17.8333,8.16667 17.8333,8.16667 16.5,7.5 Z"/></g>
<g><path style="opacity:0.008" fill="#d7d8d7" d="M 77.5,7.5 C 78.8333,8.16667 78.8333,8.16667 77.5,7.5 Z"/></g>
<g><path style="opacity:1" fill="#e69c5b" d="M 19.5,12.5 C 21.9479,11.5269 24.6146,11.1936 27.5,11.5C 27.1729,21.3478 27.5062,31.0144 28.5,40.5C 28.44,41.0431 28.1067,41.3764 27.5,41.5C 26.5344,39.604 26.2011,37.604 26.5,35.5C 26.5,32.1667 26.5,28.8333 26.5,25.5C 26.5,21.1667 26.5,16.8333 26.5,12.5C 24.1667,12.5 21.8333,12.5 19.5,12.5 Z"/></g>
<g><path style="opacity:1" fill="#ee770b" d="M 19.5,12.5 C 21.8333,12.5 24.1667,12.5 26.5,12.5C 26.5,16.8333 26.5,21.1667 26.5,25.5C 25.7321,26.2625 25.2321,27.2625 25,28.5C 22.2966,26.0979 19.1299,24.7646 15.5,24.5C 15.7373,23.209 15.404,22.209 14.5,21.5C 14.5,19.8333 14.5,18.1667 14.5,16.5C 15.5846,14.4131 17.2512,13.0798 19.5,12.5 Z"/></g>
<g><path style="opacity:0.008" fill="#d8d8d8" d="M 90.5,22.5 C 90.1667,22.5 89.8333,22.5 89.5,22.5C 89.8333,19.8333 90.1667,19.8333 90.5,22.5 Z"/></g>
<g><path style="opacity:0.008" fill="#d8d9d8" d="M 3.5,22.5 C 4.83333,23.1667 4.83333,23.1667 3.5,22.5 Z"/></g>
<g><path style="opacity:1" fill="#ea930a" d="M 56.5,27.5 C 53.1109,26.3689 49.7775,25.0355 46.5,23.5C 45.5832,24.1272 44.5832,24.4606 43.5,24.5C 45.3974,21.4406 48.0641,19.2739 51.5,18C 56.5,17.3333 61.5,17.3333 66.5,18C 63.2975,21.3709 59.9641,24.5375 56.5,27.5 Z"/></g>
<g><path style="opacity:0.008" fill="#d8d9d8" d="M 90.5,22.5 C 91.8333,23.1667 91.8333,23.1667 90.5,22.5 Z"/></g>
<g><path style="opacity:0.012" fill="#d7d8d7" d="M 3.5,25.5 C 2.83333,24.1667 2.83333,24.1667 3.5,25.5 Z"/></g>
<g><path style="opacity:0.012" fill="#d6d7d6" d="M 91.5,24.5 C 92.8333,25.1667 92.8333,25.1667 91.5,24.5 Z"/></g>
<g><path style="opacity:0.012" fill="#d6d7d6" d="M 1.5,26.5 C 2.83333,27.1667 2.83333,27.1667 1.5,26.5 Z"/></g>
<g><path style="opacity:0.012" fill="#d6d7d6" d="M 92.5,26.5 C 93.8333,27.1667 93.8333,27.1667 92.5,26.5 Z"/></g>
<g><path style="opacity:0.01" fill="#d8d8d8" d="M 1.5,30.5 C 1.16667,30.5 0.833333,30.5 0.5,30.5C 0.833333,27.8333 1.16667,27.8333 1.5,30.5 Z"/></g>
<g><path style="opacity:1" fill="#ed7b12" d="M 56.5,27.5 C 54.5281,31.1051 51.8615,34.1051 48.5,36.5C 45.8981,34.1904 42.8981,32.3571 39.5,31C 40.2524,30.3292 40.5858,29.4959 40.5,28.5C 41.5,27.1667 42.5,25.8333 43.5,24.5C 44.5832,24.4606 45.5832,24.1272 46.5,23.5C 49.7775,25.0355 53.1109,26.3689 56.5,27.5 Z"/></g>
<g><path style="opacity:0.008" fill="#d8d8d8" d="M -0.5,30.5 C -0.166667,30.5 0.166667,30.5 0.5,30.5C 0.67158,31.4916 0.338246,32.1583 -0.5,32.5C -0.5,31.8333 -0.5,31.1667 -0.5,30.5 Z"/></g>
<g><path style="opacity:0.007" fill="#d8d8d8" d="M 95.5,30.5 C 95.5,31.5 95.5,32.5 95.5,33.5C 95.1667,33.5 94.8333,33.5 94.5,33.5C 94.2627,32.209 94.596,31.209 95.5,30.5 Z"/></g>
<g><path style="opacity:1" fill="#f25b11" d="M 14.5,21.5 C 15.404,22.209 15.7373,23.209 15.5,24.5C 19.1299,24.7646 22.2966,26.0979 25,28.5C 25.2321,27.2625 25.7321,26.2625 26.5,25.5C 26.5,28.8333 26.5,32.1667 26.5,35.5C 25.71,36.6085 25.21,37.9419 25,39.5C 22.5472,37.6008 19.8805,35.9341 17,34.5C 16.6667,34.8333 16.3333,35.1667 16,35.5C 15.79,33.9419 15.29,32.6085 14.5,31.5C 14.5,28.1667 14.5,24.8333 14.5,21.5 Z"/></g>
<g><path style="opacity:1" fill="#f44a18" d="M 14.5,31.5 C 15.29,32.6085 15.79,33.9419 16,35.5C 16.3333,35.1667 16.6667,34.8333 17,34.5C 19.8805,35.9341 22.5472,37.6008 25,39.5C 25.21,37.9419 25.71,36.6085 26.5,35.5C 26.2011,37.604 26.5344,39.604 27.5,41.5C 28.1067,41.3764 28.44,41.0431 28.5,40.5C 31.1317,41.3267 33.7983,42.16 36.5,43C 35.9056,43.4643 35.2389,43.631 34.5,43.5C 29.9677,43.1818 25.6344,43.5151 21.5,44.5C 19.2459,45.4151 17.2459,46.7484 15.5,48.5C 14.5111,43.0247 14.1778,37.358 14.5,31.5 Z"/></g>
<g><path style="opacity:1" fill="#f16016" d="M 40.5,28.5 C 40.5858,29.4959 40.2524,30.3292 39.5,31C 42.8981,32.3571 45.8981,34.1904 48.5,36.5C 46.0381,39.4639 43.3714,42.2972 40.5,45C 38.2251,45.405 36.2251,44.905 34.5,43.5C 35.2389,43.631 35.9056,43.4643 36.5,43C 33.7983,42.16 31.1317,41.3267 28.5,40.5C 32.1667,36.1667 36.1667,32.1667 40.5,28.5 Z"/></g>
<g><path style="opacity:1" fill="#ee6a46" d="M 14.5,16.5 C 14.5,18.1667 14.5,19.8333 14.5,21.5C 14.5,24.8333 14.5,28.1667 14.5,31.5C 14.1778,37.358 14.5111,43.0247 15.5,48.5C 15.5,48.8333 15.5,49.1667 15.5,49.5C 14.8333,49.5 14.5,49.8333 14.5,50.5C 13.1667,39.1667 13.1667,27.8333 14.5,16.5 Z"/></g>
<g><path style="opacity:1" fill="#99e3ef" d="M 21.5,44.5 C 25.0419,44.1872 28.3752,44.5206 31.5,45.5C 28.3112,45.8583 25.3112,46.525 22.5,47.5C 20.847,47.6596 19.5137,48.3263 18.5,49.5C 17.2022,50.1157 16.2022,50.1157 15.5,49.5C 15.5,49.1667 15.5,48.8333 15.5,48.5C 17.2459,46.7484 19.2459,45.4151 21.5,44.5 Z"/></g>
<g><path style="opacity:1" fill="#a1b8b6" d="M 15.5,49.5 C 16.2022,50.1157 17.2022,50.1157 18.5,49.5C 23.6401,48.9103 28.3068,49.9103 32.5,52.5C 32.6716,53.4916 32.3382,54.1583 31.5,54.5C 31.4226,53.2502 30.756,52.4169 29.5,52C 25.1667,51.3333 20.8333,51.3333 16.5,52C 15.6195,52.7083 14.9528,53.5416 14.5,54.5C 14.1667,54.5 13.8333,54.5 13.5,54.5C 13.4326,53.0413 13.7659,51.7079 14.5,50.5C 14.5,49.8333 14.8333,49.5 15.5,49.5 Z"/></g>
<g><path style="opacity:1" fill="#1b6732" d="M 31.5,54.5 C 30.2223,54.7822 29.2223,55.4489 28.5,56.5C 24.3674,53.2948 19.7007,52.6281 14.5,54.5C 14.9528,53.5416 15.6195,52.7083 16.5,52C 20.8333,51.3333 25.1667,51.3333 29.5,52C 30.756,52.4169 31.4226,53.2502 31.5,54.5 Z"/></g>
<g><path style="opacity:1" fill="#196288" d="M 22.5,47.5 C 27.4116,47.0631 32.0783,47.8964 36.5,50C 40.6947,53.0298 44.3613,56.5298 47.5,60.5C 50.7419,66.4112 55.0753,71.4112 60.5,75.5C 63.7743,77.9695 67.441,79.6362 71.5,80.5C 73.8333,80.5 76.1667,80.5 78.5,80.5C 67.967,85.8396 58.8003,83.8396 51,74.5C 47.5825,68.6631 43.9158,62.9964 40,57.5C 37.6182,55.6113 35.1182,53.9447 32.5,52.5C 28.3068,49.9103 23.6401,48.9103 18.5,49.5C 19.5137,48.3263 20.847,47.6596 22.5,47.5 Z"/></g>
<g><path style="opacity:1" fill="#1a6085" d="M 72.5,56.5 C 71.2597,57.6588 69.9264,58.6588 68.5,59.5C 65.9426,57.9676 63.4426,56.3009 61,54.5C 60.3162,53.2161 60.4829,52.0495 61.5,51C 66.48,50.1566 70.1466,51.99 72.5,56.5 Z"/></g>
<g><path style="opacity:1" fill="#36baf5" d="M 31.5,45.5 C 38.6109,46.8915 44.2776,50.5581 48.5,56.5C 47.5655,57.5676 47.2322,58.901 47.5,60.5C 44.3613,56.5298 40.6947,53.0298 36.5,50C 32.0783,47.8964 27.4116,47.0631 22.5,47.5C 25.3112,46.525 28.3112,45.8583 31.5,45.5 Z"/></g>
<g><path style="opacity:1" fill="#318c39" d="M 28.5,56.5 C 27.6993,58.0418 27.366,59.7085 27.5,61.5C 27.1667,61.5 26.8333,61.5 26.5,61.5C 25.7261,60.8529 24.7261,60.5195 23.5,60.5C 20.8214,60.9357 18.1547,61.4357 15.5,62C 14.6198,63.3561 14.2865,64.8561 14.5,66.5C 14.5,69.5 14.5,72.5 14.5,75.5C 13.5088,68.6866 13.1755,61.6866 13.5,54.5C 13.8333,54.5 14.1667,54.5 14.5,54.5C 19.7007,52.6281 24.3674,53.2948 28.5,56.5 Z"/></g>
<g><path style="opacity:1" fill="#247ca2" d="M 84.5,71.5 C 84.3332,65.6645 81.3332,62.3312 75.5,61.5C 75.45,56.9359 73.45,53.4359 69.5,51C 77.0685,51.5397 82.2351,55.373 85,62.5C 85.8045,65.6965 85.6378,68.6965 84.5,71.5 Z"/></g>
<g><path style="opacity:1" fill="#133759" d="M 72.5,56.5 C 73.1098,57.391 73.4431,58.391 73.5,59.5C 73.7525,62.3198 73.2525,64.9865 72,67.5C 71.6012,67.2716 71.4346,66.9382 71.5,66.5C 71.8176,63.5185 70.8176,61.1852 68.5,59.5C 69.9264,58.6588 71.2597,57.6588 72.5,56.5 Z"/></g>
<g><path style="opacity:1" fill="#11a6f9" d="M 48.5,56.5 C 52.1549,61.8206 56.4882,66.4873 61.5,70.5C 60.5266,70.9867 59.5266,71.4867 58.5,72C 59.8228,72.8159 60.4894,73.9826 60.5,75.5C 55.0753,71.4112 50.7419,66.4112 47.5,60.5C 47.2322,58.901 47.5655,57.5676 48.5,56.5 Z"/></g>
<g><path style="opacity:0.008" fill="#d8d8d8" d="M -0.5,62.5 C 0.338246,62.8417 0.67158,63.5084 0.5,64.5C 0.166667,64.5 -0.166667,64.5 -0.5,64.5C -0.5,63.8333 -0.5,63.1667 -0.5,62.5 Z"/></g>
<g><path style="opacity:0.008" fill="#d8d8d8" d="M 95.5,62.5 C 95.5,63.1667 95.5,63.8333 95.5,64.5C 95.1667,64.5 94.8333,64.5 94.5,64.5C 94.3284,63.5084 94.6618,62.8417 95.5,62.5 Z"/></g>
<g><path style="opacity:1" fill="#3d992d" d="M 26.5,61.5 C 26.5,62.5 26.5,63.5 26.5,64.5C 22.5592,66.278 18.5592,66.9446 14.5,66.5C 14.2865,64.8561 14.6198,63.3561 15.5,62C 18.1547,61.4357 20.8214,60.9357 23.5,60.5C 24.7261,60.5195 25.7261,60.8529 26.5,61.5 Z"/></g>
<g><path style="opacity:0.01" fill="#d8d9d8" d="M 0.5,64.5 C 0.833333,64.5 1.16667,64.5 1.5,64.5C 1.16667,67.1667 0.833333,67.1667 0.5,64.5 Z"/></g>
<g><path style="opacity:0.01" fill="#d8d8d8" d="M 93.5,64.5 C 93.8333,64.5 94.1667,64.5 94.5,64.5C 94.1667,67.1667 93.8333,67.1667 93.5,64.5 Z"/></g>
<g><path style="opacity:1" fill="#125b80" d="M 75.5,61.5 C 81.3332,62.3312 84.3332,65.6645 84.5,71.5C 81.4,69.0572 78.0667,67.0572 74.5,65.5C 74.5,64.8333 74.5,64.1667 74.5,63.5C 75.3382,63.1583 75.6716,62.4916 75.5,61.5 Z"/></g>
<g><path style="opacity:0.012" fill="#d7d8d7" d="M 1.5,67.5 C 2.83333,68.1667 2.83333,68.1667 1.5,67.5 Z"/></g>
<g><path style="opacity:0.012" fill="#d6d7d6" d="M 92.5,67.5 C 93.8333,68.1667 93.8333,68.1667 92.5,67.5 Z"/></g>
<g><path style="opacity:1" fill="#949ea9" d="M 73.5,59.5 C 74.4345,60.5676 74.7678,61.901 74.5,63.5C 74.5,64.1667 74.5,64.8333 74.5,65.5C 73.8763,67.754 72.543,69.4206 70.5,70.5C 69.5573,68.9988 69.8906,67.6654 71.5,66.5C 71.4346,66.9382 71.6012,67.2716 72,67.5C 73.2525,64.9865 73.7525,62.3198 73.5,59.5 Z"/></g>
<g><path style="opacity:0.012" fill="#d7d8d7" d="M 3.5,69.5 C 2.83333,70.1667 2.83333,70.1667 3.5,69.5 Z"/></g>
<g><path style="opacity:0.012" fill="#d7d8d7" d="M 91.5,69.5 C 92.8333,70.1667 92.8333,70.1667 91.5,69.5 Z"/></g>
<g><path style="opacity:0.008" fill="#d8d9d8" d="M 3.5,71.5 C 4.83333,72.1667 4.83333,72.1667 3.5,71.5 Z"/></g>
<g><path style="opacity:1" fill="#0b3d61" d="M 74.5,65.5 C 78.0667,67.0572 81.4,69.0572 84.5,71.5C 84.5,71.8333 84.5,72.1667 84.5,72.5C 83.078,73.925 81.4113,74.925 79.5,75.5C 75.8161,74.5041 72.1495,73.1708 68.5,71.5C 68.8417,70.6618 69.5084,70.3284 70.5,70.5C 72.543,69.4206 73.8763,67.754 74.5,65.5 Z"/></g>
<g><path style="opacity:0.008" fill="#d8d9d8" d="M 90.5,71.5 C 91.8333,72.1667 91.8333,72.1667 90.5,71.5 Z"/></g>
<g><path style="opacity:1" fill="#0e94f5" d="M 61.5,70.5 C 62.391,71.1098 63.391,71.4431 64.5,71.5C 66.6351,73.0709 68.9684,74.4043 71.5,75.5C 70.9094,76.1515 70.2427,76.8182 69.5,77.5C 70.1925,78.5178 70.8592,79.5178 71.5,80.5C 67.441,79.6362 63.7743,77.9695 60.5,75.5C 60.4894,73.9826 59.8228,72.8159 58.5,72C 59.5266,71.4867 60.5266,70.9867 61.5,70.5 Z"/></g>
<g><path style="opacity:1" fill="#061a39" d="M 64.5,71.5 C 65.8333,71.5 67.1667,71.5 68.5,71.5C 72.1495,73.1708 75.8161,74.5041 79.5,75.5C 76.8333,75.5 74.1667,75.5 71.5,75.5C 68.9684,74.4043 66.6351,73.0709 64.5,71.5 Z"/></g>
<g><path style="opacity:0.008" fill="#d7d8d7" d="M 89.5,72.5 C 89.8333,72.5 90.1667,72.5 90.5,72.5C 90.6716,73.4916 90.3382,74.1583 89.5,74.5C 89.5,73.8333 89.5,73.1667 89.5,72.5 Z"/></g>
<g><path style="opacity:1" fill="#6fb728" d="M 26.5,64.5 C 26.5,67.8333 26.5,71.1667 26.5,74.5C 22.4423,75.3082 18.7757,76.6416 15.5,78.5C 14.596,77.791 14.2627,76.791 14.5,75.5C 14.5,72.5 14.5,69.5 14.5,66.5C 18.5592,66.9446 22.5592,66.278 26.5,64.5 Z"/></g>
<g><path style="opacity:0.012" fill="#d7d8d7" d="M 88.5,74.5 C 88.8333,74.5 89.1667,74.5 89.5,74.5C 89.3147,75.1701 88.9813,75.1701 88.5,74.5 Z"/></g>
<g><path style="opacity:0.012" fill="#d8d9d8" d="M 7.5,75.5 C 6.83333,76.1667 6.83333,76.1667 7.5,75.5 Z"/></g>
<g><path style="opacity:0.012" fill="#d7d8d7" d="M 87.5,75.5 C 87.8333,75.5 88.1667,75.5 88.5,75.5C 88.3147,76.1701 87.9813,76.1701 87.5,75.5 Z"/></g>
<g><path style="opacity:0.008" fill="#d7d8d7" d="M 7.5,77.5 C 8.83333,78.1667 8.83333,78.1667 7.5,77.5 Z"/></g>
<g><path style="opacity:0.008" fill="#d7d8d7" d="M 86.5,77.5 C 87.8333,78.1667 87.8333,78.1667 86.5,77.5 Z"/></g>
<g><path style="opacity:1" fill="#95ce28" d="M 26.5,74.5 C 26.5,77.1667 26.5,79.8333 26.5,82.5C 24.8333,82.5 23.1667,82.5 21.5,82.5C 18.8021,82.1551 16.8021,80.8218 15.5,78.5C 18.7757,76.6416 22.4423,75.3082 26.5,74.5 Z"/></g>
<g><path style="opacity:1" fill="#1886f6" d="M 84.5,72.5 C 83.5577,76.0902 81.5577,78.7569 78.5,80.5C 76.1667,80.5 73.8333,80.5 71.5,80.5C 70.8592,79.5178 70.1925,78.5178 69.5,77.5C 70.2427,76.8182 70.9094,76.1515 71.5,75.5C 74.1667,75.5 76.8333,75.5 79.5,75.5C 81.4113,74.925 83.078,73.925 84.5,72.5 Z"/></g>
<g><path style="opacity:0.012" fill="#d6d8d7" d="M 85.5,78.5 C 85.8333,78.5 86.1667,78.5 86.5,78.5C 86.3147,79.1701 85.9813,79.1701 85.5,78.5 Z"/></g>
<g><path style="opacity:1" fill="#afcf78" d="M 26.5,61.5 C 26.8333,61.5 27.1667,61.5 27.5,61.5C 27.5,68.8333 27.5,76.1667 27.5,83.5C 25.2646,83.7947 23.2646,83.4614 21.5,82.5C 23.1667,82.5 24.8333,82.5 26.5,82.5C 26.5,79.8333 26.5,77.1667 26.5,74.5C 26.5,71.1667 26.5,67.8333 26.5,64.5C 26.5,63.5 26.5,62.5 26.5,61.5 Z"/></g>
<g><path style="opacity:0.016" fill="#d7d8d7" d="M 84.5,79.5 C 84.8333,79.5 85.1667,79.5 85.5,79.5C 85.3147,80.1701 84.9813,80.1701 84.5,79.5 Z"/></g>
<g><path style="opacity:0.016" fill="#d7d9d8" d="M 83.5,80.5 C 83.8333,80.5 84.1667,80.5 84.5,80.5C 84.3147,81.1701 83.9813,81.1701 83.5,80.5 Z"/></g>
<g><path style="opacity:0.012" fill="#d7d8d8" d="M 82.5,81.5 C 82.8333,81.5 83.1667,81.5 83.5,81.5C 83.3147,82.1701 82.9813,82.1701 82.5,81.5 Z"/></g>
<g><path style="opacity:0.008" fill="#d7d9d8" d="M 81.5,82.5 C 81.8333,82.5 82.1667,82.5 82.5,82.5C 82.3147,83.1701 81.9813,83.1701 81.5,82.5 Z"/></g>
<g><path style="opacity:0.016" fill="#d7d8d7" d="M 80.5,83.5 C 80.8333,83.5 81.1667,83.5 81.5,83.5C 81.3147,84.1701 80.9813,84.1701 80.5,83.5 Z"/></g>
<g><path style="opacity:0.016" fill="#d6d7d6" d="M 79.5,84.5 C 79.8333,84.5 80.1667,84.5 80.5,84.5C 80.3147,85.1701 79.9813,85.1701 79.5,84.5 Z"/></g>
<g><path style="opacity:0.012" fill="#d7d8d7" d="M 74.5,88.5 C 75.8333,89.1667 75.8333,89.1667 74.5,88.5 Z"/></g>
<g><path style="opacity:0.008" fill="#d7d8d7" d="M 22.5,89.5 C 22.5,89.8333 22.5,90.1667 22.5,90.5C 19.8333,90.1667 19.8333,89.8333 22.5,89.5 Z"/></g>
<g><path style="opacity:0.008" fill="#d8d8d8" d="M 72.5,90.5 C 72.5,90.1667 72.5,89.8333 72.5,89.5C 73.1667,89.5 73.8333,89.5 74.5,89.5C 74.1583,90.3382 73.4916,90.6716 72.5,90.5 Z"/></g>
<g><path style="opacity:0.008" fill="#d8d9d8" d="M 22.5,90.5 C 23.8333,91.1667 23.8333,91.1667 22.5,90.5 Z"/></g>
<g><path style="opacity:0.008" fill="#d8d9d8" d="M 72.5,90.5 C 71.8333,91.1667 71.8333,91.1667 72.5,90.5 Z"/></g>
<g><path style="opacity:0.012" fill="#d7d8d7" d="M 25.5,91.5 C 24.8333,92.1667 24.8333,92.1667 25.5,91.5 Z"/></g>
<g><path style="opacity:0.012" fill="#d7d8d7" d="M 69.5,91.5 C 70.8333,92.1667 70.8333,92.1667 69.5,91.5 Z"/></g>
<g><path style="opacity:0.012" fill="#d7d8d7" d="M 26.5,92.5 C 27.8333,93.1667 27.8333,93.1667 26.5,92.5 Z"/></g>
<g><path style="opacity:0.012" fill="#d7d8d7" d="M 67.5,92.5 C 68.8333,93.1667 68.8333,93.1667 67.5,92.5 Z"/></g>
<g><path style="opacity:0.01" fill="#d8d8d8" d="M 30.5,93.5 C 30.5,93.8333 30.5,94.1667 30.5,94.5C 27.8333,94.1667 27.8333,93.8333 30.5,93.5 Z"/></g>
<g><path style="opacity:0.01" fill="#d7d8d7" d="M 64.5,94.5 C 64.5,94.1667 64.5,93.8333 64.5,93.5C 67.1667,93.8333 67.1667,94.1667 64.5,94.5 Z"/></g>
<g><path style="opacity:0.008" fill="#d7d8d7" d="M 30.5,95.5 C 30.5,95.1667 30.5,94.8333 30.5,94.5C 31.4916,94.3284 32.1583,94.6618 32.5,95.5C 31.8333,95.5 31.1667,95.5 30.5,95.5 Z"/></g>
<g><path style="opacity:0.008" fill="#d8d8d8" d="M 62.5,95.5 C 62.8417,94.6618 63.5084,94.3284 64.5,94.5C 64.5,94.8333 64.5,95.1667 64.5,95.5C 63.8333,95.5 63.1667,95.5 62.5,95.5 Z"/></g>
</svg>
